<?xml version="1.0" standalone="no"?>
<!DOCTYPE svg PUBLIC "-//W3C//DTD SVG 20010904//EN"
 "http://www.w3.org/TR/2001/REC-SVG-20010904/DTD/svg10.dtd">
<svg version="1.0" xmlns="http://www.w3.org/2000/svg"
 width="1280.000000pt" height="640.000000pt" viewBox="0 0 1280.000000 640.000000"
 preserveAspectRatio="xMidYMid meet">
<metadata>
Created by potrace 1.15, written by Peter Selinger 2001-2017
</metadata>
<g transform="translate(0.000000,640.000000) scale(0.100000,-0.100000)"
fill="#000000" stroke="none">
<path d="M6265 5500 c-184 -4 -225 -8 -252 -22 -23 -13 -55 -18 -110 -18 l-78
0 -54 -103 -54 -102 -13 -145 c-7 -79 -11 -146 -9 -148 2 -2 31 20 65 49 70
62 87 66 283 68 115 1 117 0 107 -19 -10 -18 -21 -20 -135 -20 -120 0 -124 -1
-156 -27 l-32 -28 24 -6 c13 -4 50 -7 82 -8 48 -1 67 -7 103 -31 l44 -31 -16
-30 c-12 -23 -490 -587 -680 -800 l-32 -37 -293 225 c-162 124 -301 231 -310
239 -13 12 -14 26 -2 121 7 60 17 135 22 168 8 54 6 62 -16 96 -46 70 -117
119 -216 150 l-92 29 -517 0 c-285 0 -518 -3 -518 -6 0 -4 48 -71 108 -150
l107 -142 98 -46 99 -46 219 0 219 0 528 -502 c290 -276 557 -530 593 -564
l67 -64 47 -252 47 -253 10 -745 9 -745 29 -30 c19 -18 33 -26 39 -20 5 6 23
56 40 112 l31 102 57 34 c51 31 59 33 97 25 22 -5 54 -21 70 -36 27 -26 28
-30 22 -93 -6 -63 -5 -66 24 -94 16 -16 33 -26 36 -22 7 6 22 395 23 582 l1
91 53 31 c40 24 73 33 144 43 118 15 211 6 361 -34 l117 -31 7 -55 c3 -30 6
-155 7 -277 1 -122 6 -245 12 -273 10 -46 13 -50 40 -50 16 0 29 3 29 8 2 86
22 186 44 221 l26 40 62 -28 c55 -25 69 -37 105 -92 37 -55 43 -71 43 -117 0
-71 36 -122 86 -122 30 0 34 3 39 33 3 17 12 68 20 112 11 58 19 263 30 758
l15 678 40 267 c22 147 62 370 90 496 28 126 49 230 48 231 -6 4 -484 398
-491 405 -5 4 -15 50 -23 101 -7 52 -38 265 -69 474 -30 208 -58 382 -63 386
-4 3 -54 27 -111 53 -85 37 -114 46 -155 44 -28 -1 -150 -5 -271 -8z m-818
-1922 c-3 -7 -5 -2 -5 12 0 14 2 19 5 13 2 -7 2 -19 0 -25z"/>
<path d="M499 5050 l-496 -5 13 -46 c17 -59 120 -153 254 -232 l95 -56 170
-11 c242 -16 1541 1 1603 21 l43 14 -153 162 -153 161 -440 -1 c-242 -1 -663
-4 -936 -7z"/>
<path d="M2096 5016 c18 -53 87 -121 217 -214 l99 -70 91 -6 c146 -9 864 -16
950 -9 42 3 77 9 77 13 0 4 -42 42 -92 84 -71 59 -104 95 -138 151 l-44 74
-61 5 c-33 3 -297 7 -587 10 l-526 5 14 -43z"/>
<path d="M8265 5029 c-81 -25 -97 -35 -152 -89 -35 -33 -65 -71 -69 -84 -3
-13 4 -96 15 -186 12 -90 20 -164 19 -165 -2 -1 -140 -107 -308 -235 -168
-128 -306 -234 -307 -235 -5 -3 -93 -470 -90 -478 1 -4 267 244 590 552 l587
561 222 1 223 0 95 47 95 47 107 140 c59 77 107 143 108 148 0 4 -235 7 -522
6 l-523 -1 -90 -29z"/>
<path d="M9941 5040 l-384 -5 -46 -74 c-34 -54 -71 -96 -139 -154 -51 -44 -89
-84 -85 -88 15 -14 152 -16 624 -8 l476 7 94 67 c102 73 206 168 219 200 4 11
10 30 14 43 l7 22 -198 -2 c-109 -2 -371 -5 -582 -8z"/>
<path d="M10780 4890 c-84 -89 -151 -162 -149 -164 2 -2 22 -9 44 -16 58 -18
1362 -33 1590 -19 l170 11 100 60 c137 82 231 169 249 229 l14 46 -406 6
c-223 4 -642 7 -932 7 l-527 0 -153 -160z"/>
<path d="M2603 4518 c5 -61 12 -80 43 -125 l36 -53 127 0 c203 0 277 16 438
97 130 65 138 71 141 100 3 29 0 32 -30 37 -18 3 -197 7 -397 10 l-364 5 6
-71z"/>
<path d="M3550 4570 c1 -3 31 -26 69 -52 l68 -46 -9 -68 c-4 -37 -7 -68 -5
-69 1 -1 29 -13 62 -28 l60 -26 3 -60 3 -59 69 -17 69 -17 21 -71 c12 -40 24
-86 27 -104 6 -34 22 -43 83 -43 32 0 40 -7 88 -69 l53 -69 77 -14 77 -14 1
-64 1 -65 79 -5 78 -5 27 -64 c15 -35 32 -67 39 -71 7 -4 52 -16 99 -25 l87
-18 39 -57 40 -57 73 -6 73 -6 61 -66 62 -67 65 7 c35 4 69 9 75 11 7 3 26
-25 44 -61 30 -62 34 -65 67 -65 19 0 35 4 35 10 0 5 -14 105 -31 222 l-30
213 -34 30 c-18 17 -275 255 -570 530 l-536 500 -330 5 c-181 3 -329 3 -329 0z"/>
<path d="M9678 4573 l-258 -3 0 -34 c0 -32 4 -37 76 -75 196 -106 290 -130
501 -131 l122 0 40 53 c34 45 40 61 47 125 l7 72 -139 -2 c-77 -2 -255 -4
-396 -5z"/>
<path d="M210 4532 c33 -58 120 -120 221 -159 l89 -33 1005 0 1005 0 -57 115
-58 115 -1113 0 -1113 0 21 -38z"/>
<path d="M8040 4032 l-574 -537 -27 -190 c-15 -105 -30 -205 -33 -222 -5 -32
-3 -33 29 -33 31 0 37 5 71 66 21 37 42 63 48 61 7 -3 41 -8 77 -12 l64 -6 55
64 c58 69 76 77 159 77 46 0 48 1 87 58 39 56 40 57 114 74 125 29 121 27 150
98 l26 65 80 5 79 5 3 66 3 66 75 13 74 13 52 68 c51 67 52 68 109 74 56 7 57
7 64 43 3 21 16 67 27 104 l21 66 69 18 68 18 0 58 0 58 65 29 65 30 -6 48
c-3 26 -7 56 -9 66 -2 13 17 33 66 68 38 28 69 52 69 55 0 2 -145 4 -322 4
l-323 0 -575 -538z"/>
<path d="M10338 4453 l-55 -118 999 -3 999 -2 90 35 c101 39 181 96 216 153
13 20 23 40 23 45 0 4 -499 7 -1109 7 l-1108 0 -55 -117z"/>
<path d="M3430 4389 c-58 -21 -187 -61 -287 -89 -168 -46 -192 -50 -293 -50
l-110 0 -6 -26 c-9 -37 12 -69 87 -132 l64 -52 60 5 c175 18 283 49 432 124
68 33 90 51 123 96 38 51 41 60 38 109 l-3 54 -105 -39z"/>
<path d="M9270 4364 c0 -49 5 -61 41 -109 31 -41 58 -62 117 -93 140 -73 249
-104 438 -126 47 -6 53 -4 104 34 81 60 113 103 105 140 l-7 30 -106 0 c-97 0
-124 5 -287 49 -99 27 -231 67 -292 90 l-113 40 0 -55z"/>
<path d="M400 4229 c0 -4 19 -30 42 -58 52 -64 121 -109 213 -138 l70 -23 974
0 973 0 -6 35 c-4 19 -22 68 -41 109 l-34 76 -1096 2 c-602 2 -1095 0 -1095
-3z"/>
<path d="M10190 4163 c-18 -38 -38 -89 -45 -115 l-13 -48 969 0 968 0 76 24
c117 37 170 77 258 194 8 9 -211 12 -1086 12 l-1095 0 -32 -67z"/>
<path d="M3465 4109 c-172 -82 -206 -94 -355 -129 -91 -21 -191 -44 -223 -50
l-58 -12 7 -31 c6 -31 46 -90 79 -117 8 -7 54 -16 102 -20 l88 -7 160 70 c197
87 343 181 401 258 40 54 40 54 26 92 -8 20 -20 37 -26 37 -6 -1 -96 -41 -201
-91z"/>
<path d="M9117 4153 c-14 -37 -14 -37 26 -91 68 -90 238 -193 494 -299 65 -27
72 -28 157 -20 89 8 90 8 125 49 43 49 46 55 55 90 6 26 4 27 -51 38 -32 7
-133 29 -224 50 -152 36 -181 47 -354 130 -103 49 -193 90 -200 90 -7 0 -20
-17 -28 -37z"/>
<path d="M3804 4006 c-35 -9 -79 -34 -148 -85 -62 -46 -165 -106 -279 -164
-181 -91 -182 -91 -272 -97 l-90 -5 3 -45 c2 -27 14 -62 30 -87 l27 -43 96 0
c92 0 101 2 191 43 140 62 397 257 461 349 37 53 47 75 47 107 0 23 -3 41 -7
40 -5 0 -31 -6 -59 -13z"/>
<path d="M8940 3969 c1 -37 9 -55 49 -110 68 -91 326 -286 460 -346 89 -41 99
-43 187 -43 l93 0 31 44 c23 34 30 56 30 90 l0 46 -78 0 -78 0 -192 95 c-137
67 -220 115 -289 168 -54 40 -112 76 -129 80 -18 3 -43 9 -58 13 -25 6 -26 5
-26 -37z"/>
<path d="M1252 3880 l-593 -5 29 -40 c36 -51 79 -83 167 -128 137 -68 133 -68
615 -67 239 0 654 3 922 6 l487 7 -48 56 c-26 31 -63 84 -82 119 l-34 62 -435
-2 c-239 -2 -702 -5 -1028 -8z"/>
<path d="M10055 3813 c-20 -37 -57 -90 -82 -118 l-46 -50 404 -6 c222 -4 635
-7 917 -8 573 -1 559 -3 702 69 83 42 146 92 172 137 l17 30 -652 6 c-359 4
-819 7 -1024 7 l-371 0 -37 -67z"/>
<path d="M3899 3753 c-35 -31 -91 -82 -124 -114 -47 -45 -92 -73 -210 -131
-82 -41 -199 -94 -259 -118 l-108 -43 6 -51 c3 -28 6 -59 6 -68 0 -12 20 -23
69 -39 l70 -22 91 41 c99 46 188 109 376 268 162 137 219 204 227 267 6 44 5
48 -19 57 -44 17 -59 11 -125 -47z"/>
<path d="M8800 3795 c-33 -11 -34 -13 -31 -60 2 -44 9 -55 69 -121 139 -150
402 -355 531 -414 l93 -42 60 18 c32 9 63 25 68 35 5 9 11 43 12 74 l3 56
-130 53 c-71 29 -185 81 -253 115 -104 52 -137 75 -220 152 -153 144 -161 148
-202 134z"/>
<path d="M4165 3651 c-26 -12 -72 -53 -124 -109 -120 -132 -272 -262 -429
-370 -75 -51 -141 -98 -146 -102 -6 -7 108 -170 119 -170 1 0 45 20 98 45 94
45 98 49 287 242 184 189 194 202 243 299 49 99 50 104 38 143 -13 46 -24 49
-86 22z"/>
<path d="M8562 3627 c-13 -43 -12 -46 36 -148 48 -102 54 -108 237 -297 183
-188 191 -195 286 -243 54 -27 100 -49 102 -49 5 0 127 158 127 164 0 2 -64
49 -142 102 -161 110 -312 240 -438 376 -63 68 -98 97 -137 114 -30 13 -55 24
-56 24 -1 0 -8 -19 -15 -43z"/>
<path d="M1090 3527 c0 -7 129 -106 195 -150 51 -34 95 -53 165 -72 l95 -25
723 0 c670 0 812 5 812 26 0 3 -39 51 -86 108 l-86 103 -516 6 c-541 7 -1302
9 -1302 4z"/>
<path d="M10995 3519 c-379 -3 -781 -7 -892 -8 l-202 -1 -83 -100 c-46 -56
-84 -104 -86 -109 -9 -26 108 -31 804 -31 l717 0 101 27 c72 19 119 38 161 67
62 41 205 154 205 162 0 2 -8 3 -17 2 -10 -1 -328 -5 -708 -9z"/>
<path d="M4347 3457 c-38 -28 -119 -117 -241 -265 -173 -210 -190 -228 -291
-298 -58 -42 -105 -79 -103 -82 58 -119 58 -119 128 -143 l66 -22 70 41 c100
59 231 198 359 382 60 85 115 175 123 200 13 43 23 203 12 213 -3 3 -18 7 -35
11 -25 5 -40 -2 -88 -37z"/>
<path d="M8358 3483 c-26 -7 -32 -87 -14 -177 15 -72 24 -88 133 -244 137
-197 256 -324 357 -383 75 -43 81 -43 160 -10 39 17 50 29 76 82 19 36 28 64
22 68 -6 3 -54 37 -109 75 -91 64 -112 86 -287 298 -219 265 -270 309 -338
291z"/>
<path d="M4583 3290 c-56 -45 -70 -64 -162 -232 -97 -177 -106 -188 -240 -333
l-139 -150 43 -50 43 -50 78 -3 79 -3 69 83 c38 46 106 139 151 208 69 105 89
146 128 260 58 171 66 233 37 284 -12 20 -23 36 -23 36 -1 -1 -30 -23 -64 -50z"/>
<path d="M8143 3292 c-29 -52 -17 -133 41 -296 51 -143 137 -286 270 -448 l71
-87 79 2 78 2 44 50 43 51 -139 149 c-135 146 -141 155 -240 336 -102 187
-123 212 -216 271 -6 4 -19 -8 -31 -30z"/>
<path d="M4858 3167 c-35 -30 -55 -60 -74 -106 -84 -208 -191 -387 -371 -616
-35 -44 -63 -85 -63 -91 0 -5 12 -22 28 -37 26 -25 30 -26 106 -20 78 6 80 7
153 65 40 32 95 86 121 119 52 67 151 270 207 424 35 96 36 103 29 192 -6 88
-8 92 -33 98 -14 3 -33 8 -41 10 -8 2 -36 -15 -62 -38z"/>
<path d="M7863 3189 c-35 -10 -37 -16 -47 -132 -4 -49 1 -74 34 -165 56 -156
151 -351 206 -422 26 -33 79 -86 117 -117 68 -55 72 -56 151 -64 l81 -7 32 31
31 32 -135 180 c-114 152 -148 206 -217 345 -45 91 -89 183 -98 206 -15 36
-100 126 -117 123 -3 0 -20 -5 -38 -10z"/>
<path d="M1650 3163 c1 -17 98 -80 179 -116 47 -22 167 -68 266 -104 169 -61
191 -66 365 -89 166 -21 223 -24 561 -24 300 0 379 3 394 14 17 12 13 21 -68
139 -52 75 -103 137 -129 156 l-42 31 -763 0 c-420 0 -763 -3 -763 -7z"/>
<path d="M9583 3125 c-23 -20 -79 -90 -124 -157 -77 -113 -81 -122 -64 -135
15 -10 94 -13 384 -13 329 0 385 3 556 24 173 23 204 30 350 81 219 77 360
139 423 187 28 22 52 42 52 44 0 2 -345 4 -767 4 l-768 0 -42 -35z"/>
<path d="M5133 3047 l-62 -62 -44 -155 c-30 -104 -67 -201 -112 -295 -63 -132
-71 -145 -150 -220 -79 -76 -83 -82 -78 -115 4 -29 13 -41 48 -63 43 -28 44
-28 131 -16 81 10 92 15 137 53 53 45 69 74 165 306 60 147 83 256 96 450 l7
105 -38 37 -39 38 -61 -63z"/>
<path d="M7582 3067 c-31 -32 -32 -35 -32 -126 0 -153 33 -314 95 -466 89
-218 109 -257 161 -306 48 -46 51 -47 139 -57 88 -10 91 -10 132 16 41 26 53
47 52 87 0 12 -31 47 -75 85 -72 63 -77 71 -150 219 -52 109 -87 197 -115 295
-22 78 -42 148 -45 158 -3 9 -33 41 -68 72 l-63 55 -31 -32z"/>
<path d="M5377 2903 c-3 -5 -13 -44 -22 -88 -10 -44 -46 -172 -81 -284 -63
-202 -65 -206 -144 -322 -44 -65 -80 -121 -79 -126 0 -4 13 -18 28 -30 29 -23
139 -43 234 -43 l52 0 43 63 42 62 0 388 0 387 -34 0 c-19 0 -37 -3 -39 -7z"/>
<path d="M7370 2509 l0 -390 40 -60 c46 -67 40 -66 198 -49 76 8 100 15 127
36 l34 26 -84 126 c-82 123 -86 132 -143 317 -33 105 -70 234 -82 288 l-22 97
-34 0 -34 0 0 -391z"/>
<path d="M6137 2058 c-4 -62 -10 -198 -13 -303 l-7 -190 126 -62 126 -62 128
72 128 73 -2 94 c-2 52 -5 184 -9 293 l-6 197 -233 0 -232 0 -6 -112z"/>
<path d="M5786 1689 c-25 -19 -26 -25 -26 -109 l0 -88 -170 -92 -170 -91 -30
-60 c-17 -32 -28 -59 -26 -59 3 0 56 18 117 40 89 32 126 40 181 40 l68 0 0
-185 c0 -204 -2 -198 64 -170 29 12 36 21 37 43 0 15 4 77 8 138 9 117 6 111
81 215 3 4 70 19 150 33 80 14 156 29 169 32 l24 5 -24 25 c-22 21 -48 29
-180 51 -85 14 -157 30 -160 35 -3 5 -12 42 -19 81 -11 68 -42 137 -59 137 -5
0 -20 -9 -35 -21z"/>
</g>
</svg>
