<svg version="1.1" id="Layer_1" xmlns="http://www.w3.org/2000/svg" xmlns:xlink="http://www.w3.org/1999/xlink" x="0px" y="0px"
	 width="100%" viewBox="0 0 880 720" enable-background="new 0 0 880 720" xml:space="preserve">
<path fill="#000000" opacity="1.000000" stroke="none" 
	d="
M723.905090,350.338074 
	C721.270264,347.325439 720.382690,349.671967 719.462219,351.422638 
	C714.952881,359.999237 709.810425,368.174133 703.736572,375.721771 
	C696.562805,384.636200 688.035217,391.577667 676.272827,393.396088 
	C662.324707,395.552460 650.517151,389.789917 643.587402,377.495453 
	C642.786987,376.075409 642.005371,374.644745 641.018005,372.863647 
	C638.597229,375.583252 638.480957,378.920807 637.020447,381.616455 
	C634.557312,386.162506 632.295349,390.960876 627.430969,393.426697 
	C621.791870,396.285248 615.696289,394.035583 611.936096,388.253571 
	C607.936279,382.103027 606.869873,374.947479 604.776855,367.628815 
	C601.933105,372.705994 599.484558,377.522430 596.626892,382.082489 
	C591.463013,390.322601 584.101624,394.896057 574.121094,394.226624 
	C564.462158,393.578796 558.303223,388.238068 554.532898,379.496826 
	C552.325989,374.380096 550.963013,368.768494 546.913879,364.168884 
	C545.086609,365.826355 545.461975,367.710205 545.352417,369.428650 
	C544.992371,375.074585 544.587280,380.718811 544.327637,386.369598 
	C544.140076,390.452911 541.637817,392.029144 538.083374,391.919525 
	C534.504211,391.809174 530.444336,391.972687 529.719910,386.844482 
	C528.132751,375.608978 528.150146,364.284760 527.752625,352.981506 
	C527.567932,347.730347 528.208496,342.415680 526.987488,336.612183 
	C522.461060,338.145630 520.143372,342.163391 516.374451,343.566833 
	C510.412445,345.786835 509.280029,349.895355 509.050842,355.902832 
	C508.587463,368.048645 503.532410,378.686707 495.838074,388.145630 
	C485.664062,400.652954 461.425507,399.459839 453.193695,384.586487 
	C452.655640,383.614288 451.889832,382.768127 450.995697,381.542175 
	C448.480072,384.795807 447.613525,388.378632 446.181793,391.656372 
	C444.032257,396.577362 441.339172,401.084930 437.883301,405.238617 
	C432.467499,411.748077 425.610748,413.466675 417.689789,411.938782 
	C409.566681,410.371918 405.821106,404.416290 403.832031,397.131897 
	C400.742340,385.816772 401.831635,374.367065 403.141541,362.926849 
	C403.757446,357.547638 404.982239,352.202423 404.394470,345.934448 
	C393.144684,363.825043 386.272217,382.603241 382.397217,402.543671 
	C381.700348,406.129761 381.178864,409.761658 380.807526,413.396057 
	C380.428833,417.102600 378.799927,419.248718 374.858307,419.286377 
	C370.764954,419.325470 367.140411,418.652100 365.830658,413.999512 
	C363.108582,404.329987 362.068542,394.414825 361.719788,384.424316 
	C361.268433,371.494476 360.973785,358.559174 360.584656,344.662140 
	C355.974976,349.292755 353.728424,354.231873 351.514008,359.148621 
	C344.606201,374.486481 341.112030,390.709167 339.441254,407.353973 
	C339.132294,410.431702 338.932251,413.101685 335.042206,413.272980 
	C330.975464,413.452118 326.958374,413.834015 325.503601,408.453735 
	C323.673401,401.684662 322.405792,394.836182 321.718811,387.875732 
	C321.298462,383.616852 321.048035,379.341187 320.647339,374.107361 
	C316.032104,384.332397 313.469025,394.372650 308.682404,403.506226 
	C306.111511,408.411804 303.108002,413.000336 299.497223,417.150208 
	C289.569855,428.559814 276.557800,428.476257 266.546875,417.079132 
	C266.236969,416.726318 265.786926,416.496643 265.379578,416.192657 
	C263.713165,417.035309 263.165802,418.703094 262.261505,420.045074 
	C257.118225,427.677795 249.122467,428.091736 243.166977,420.981415 
	C240.317032,417.578857 238.552460,413.606842 237.812180,409.295166 
	C235.327026,394.819977 234.719238,380.267181 235.334198,365.563721 
	C236.002518,349.584442 237.367966,333.708282 239.603745,317.888062 
	C239.758392,316.793823 239.623978,315.658752 239.623978,313.289581 
	C234.114212,318.731323 231.263870,324.518341 228.451340,330.207581 
	C216.200912,354.988159 209.983170,381.433258 207.225601,408.798523 
	C207.009384,410.944305 206.354233,413.082184 206.408630,415.210815 
	C206.501495,418.845367 205.592300,421.584991 201.525314,421.934326 
	C197.757355,422.257996 194.571762,421.138580 193.056549,417.263428 
	C190.676056,411.175385 189.699799,404.766602 188.640182,398.354706 
	C186.364197,384.582367 185.845169,370.559448 182.690659,356.920746 
	C182.224915,354.907074 182.163971,352.621979 180.004852,351.040375 
	C176.515396,354.214874 174.860458,358.413025 173.319870,362.549469 
	C167.303818,378.702332 162.317032,395.042480 164.802658,412.684570 
	C165.245422,415.827148 164.388641,418.815613 160.371414,419.215485 
	C156.518616,419.598907 152.985535,419.433350 151.731766,414.643066 
	C147.343201,397.875824 144.659119,380.809937 142.714798,363.617767 
	C141.948380,356.840759 141.319870,350.041534 140.886383,343.235992 
	C140.629211,339.198669 140.521759,334.906036 146.044693,333.974274 
	C150.454788,333.230255 153.221725,335.281830 154.373352,341.037842 
	C156.553955,351.936890 158.361679,362.910553 160.530899,375.004974 
	C162.463562,368.842010 164.102921,363.706146 165.680069,358.551270 
	C166.656754,355.358948 168.019913,352.341431 169.347015,349.282623 
	C174.291016,337.887177 190.860138,340.596466 195.324463,348.658539 
	C199.577454,356.338959 200.801376,364.634949 202.231720,372.975433 
	C202.820099,376.406311 203.136429,379.883850 204.386276,383.552551 
	C205.154831,380.553375 205.976944,377.566742 206.683472,374.553040 
	C212.358215,350.346771 220.994370,327.433136 235.636566,307.053833 
	C238.427811,303.168945 241.535736,300.800537 246.506439,301.879333 
	C251.361160,302.932953 252.457291,306.953094 253.173309,310.882690 
	C255.160980,321.791138 254.119156,332.791809 253.795059,343.772125 
	C253.122040,366.572052 252.326614,389.377197 254.354431,412.157410 
	C254.446274,413.189148 254.673111,414.107758 256.085999,415.118896 
	C259.063965,410.824982 262.320099,407.281494 261.273071,401.042664 
	C257.906799,380.984467 258.514496,361.144653 268.093323,342.608978 
	C272.418213,334.240021 278.163239,327.210907 289.136292,327.622528 
	C295.060669,327.844788 298.940948,330.668579 300.998505,335.942902 
	C306.415710,349.829132 302.791504,365.707001 283.909332,370.409424 
	C278.285889,371.809906 277.015350,374.325165 277.102081,379.621002 
	C277.282898,390.662445 277.823578,401.586639 281.682617,412.054474 
	C284.048065,418.470856 285.623383,418.827759 290.579254,413.985809 
	C298.602905,406.146606 303.585968,396.336334 307.936279,386.190674 
	C312.400909,375.778412 316.411957,365.183380 319.560883,354.293610 
	C320.759399,350.148743 322.699310,347.459656 327.507599,347.724701 
	C332.239471,347.985474 334.229797,350.703461 334.839783,355.006348 
	C335.650604,360.726288 336.518433,366.438171 337.505035,373.124298 
	C340.156799,366.427185 342.426086,360.605438 344.766296,354.812347 
	C346.895538,349.541504 349.754456,344.649506 352.799225,339.868958 
	C355.551025,335.548462 359.463959,333.514191 364.636688,334.101074 
	C369.938110,334.702606 372.800415,337.705292 374.175751,342.833527 
	C376.998810,353.359680 377.387024,364.158783 378.314819,374.906219 
	C378.498077,377.028961 377.936615,379.217438 378.993713,381.713837 
	C380.880768,380.414490 381.169373,378.417847 381.814331,376.708160 
	C386.643341,363.907959 391.869446,351.299591 399.355042,339.762695 
	C400.352081,338.226105 401.392914,336.718018 402.404022,335.190460 
	C405.141968,331.053986 409.084747,330.556732 413.438049,331.698944 
	C417.737823,332.827118 418.119141,336.492584 418.300964,340.028412 
	C418.935486,352.366974 417.420929,364.645905 417.155823,376.959717 
	C416.987762,384.764862 416.457214,392.628235 419.060944,400.223511 
	C421.439697,407.162476 423.507477,407.712921 428.534576,402.528961 
	C433.122772,397.797668 435.968384,391.925262 438.938324,386.141266 
	C444.776123,374.772095 448.028656,362.877533 448.845947,349.966888 
	C449.771942,335.339752 455.527954,322.183350 465.527252,311.238159 
	C470.027618,306.312042 475.280151,302.529510 482.646179,304.381989 
	C484.308716,304.800110 485.798126,305.486816 486.862335,306.871613 
	C487.677307,307.932007 488.601135,309.071045 487.715607,310.468109 
	C487.010620,311.580383 485.556732,311.920532 484.599457,311.476990 
	C481.028198,309.822327 479.333557,311.995239 477.804443,314.516876 
	C466.070648,333.867126 462.634308,354.801544 466.473877,376.919159 
	C467.473358,382.676697 469.609375,389.082245 476.102203,390.301300 
	C482.288666,391.462830 485.648987,385.799561 488.938721,381.444366 
	C494.492523,374.091797 497.210510,365.568237 498.590607,356.559814 
	C499.242004,352.307831 498.100769,349.808960 493.112732,350.249847 
	C489.397095,350.578278 485.856323,349.407501 482.524658,347.789764 
	C475.652710,344.453033 472.393127,337.937653 474.289459,331.479706 
	C476.283112,324.690308 482.633301,320.554321 490.108917,321.253510 
	C497.163574,321.913330 502.303619,325.444122 505.302185,331.867645 
	C506.687683,334.835571 507.765778,337.947021 508.972046,340.965485 
	C518.957214,337.759338 527.397522,326.735870 527.736694,316.944183 
	C527.816833,314.629883 528.419861,312.337708 528.581482,310.021301 
	C528.867493,305.922668 531.165222,304.006531 535.065308,303.975159 
	C539.110046,303.942627 541.628906,305.885620 542.252502,310.066559 
	C542.712097,313.147858 543.331848,316.205261 544.026123,320.089783 
	C548.146179,314.255157 551.122559,308.651276 555.897766,304.413147 
	C559.696472,301.041779 563.736267,298.202240 568.808411,297.184937 
	C575.089355,295.925171 578.824890,298.590332 579.586304,304.885864 
	C580.206055,310.010162 578.752136,314.795929 576.845642,319.431061 
	C571.959961,331.309326 565.234680,341.909302 555.056885,350.033844 
	C553.106934,351.590424 551.148499,353.136322 547.991577,355.641266 
	C561.357178,359.102325 565.244934,369.104004 569.763184,378.506470 
	C575.778687,391.024689 580.138184,391.278107 587.691406,380.131531 
	C599.047852,363.372559 607.605835,345.101013 606.690063,323.890167 
	C606.453430,318.409760 606.715088,312.930237 607.596130,307.463898 
	C608.167542,303.918549 609.388977,301.330261 613.256287,301.052277 
	C617.247253,300.765411 619.429016,302.975677 620.221558,306.734375 
	C623.127136,320.515411 623.770020,334.416779 622.717712,348.450867 
	C621.809387,360.565186 621.828735,372.649963 625.246765,385.139587 
	C629.044128,381.686859 630.459778,377.636017 632.187988,373.740784 
	C635.831116,365.529785 637.285461,357.316986 636.169434,348.077698 
	C634.533691,334.536560 636.545776,321.140167 643.298584,308.891632 
	C647.510071,301.252655 653.785583,296.359344 662.682251,295.754395 
	C675.273315,294.898193 683.744507,306.627167 679.307251,318.536407 
	C676.610718,325.773773 671.195557,330.151672 664.130554,332.726501 
	C652.912842,336.814789 653.113708,336.788727 654.089050,348.742615 
	C654.856445,358.147827 656.831177,367.148407 661.042236,375.606873 
	C661.929626,377.389282 662.935669,379.139069 664.094116,380.755463 
	C668.664978,387.133057 672.918335,388.410370 680.067200,385.186523 
	C694.124207,378.847443 702.967346,367.072876 710.508179,354.406769 
	C718.348083,341.238159 717.253967,344.172852 706.188477,336.954681 
	C699.144104,332.359528 692.613892,327.264801 688.633240,319.588593 
	C685.081909,312.740112 686.375427,304.751068 692.051697,298.318787 
	C697.914917,291.674805 705.639343,289.198486 712.588379,291.652496 
	C718.262390,293.656158 721.455688,297.962616 723.384399,303.335938 
	C726.526855,312.091125 727.661987,321.201660 726.091736,330.324738 
	C725.353333,334.614410 726.939148,336.552521 729.954102,338.842621 
	C742.872498,348.655029 749.569519,361.784851 749.220276,378.043274 
	C748.893982,393.230621 736.902222,404.143188 722.127991,403.320679 
	C713.819824,402.858154 707.247681,395.380951 707.870361,387.108215 
	C708.072632,384.420990 709.373230,382.359955 711.571045,380.907898 
	C712.847595,380.064484 714.274597,379.532074 715.761597,380.573303 
	C717.273315,381.631897 716.537415,382.857361 716.078003,384.117859 
	C714.269714,389.079681 717.180115,392.347443 720.296387,395.468842 
	C722.173462,397.349030 723.586304,395.794769 724.998230,394.614716 
	C733.398376,387.593994 735.897705,376.611511 731.828308,364.492065 
	C730.114380,359.387573 727.599976,354.718567 723.905090,350.338074 
M720.616089,324.211517 
	C719.918213,316.792114 719.482178,309.284882 715.867615,302.542786 
	C714.139099,299.318604 711.809692,295.463135 707.947998,295.915131 
	C704.190552,296.354980 702.497314,300.432281 701.394226,303.992523 
	C698.505554,313.315308 708.256287,327.555786 719.465881,330.349365 
	C719.836365,328.569244 720.206055,326.792877 720.616089,324.211517 
M545.295776,341.924927 
	C545.538513,343.151276 544.793274,344.608948 546.110168,345.603424 
	C557.982788,337.003174 572.442383,309.911774 569.325989,302.152588 
	C557.938049,305.088501 545.460205,325.313232 545.295776,341.924927 
M284.280853,340.789642 
	C280.645752,348.550415 277.680817,356.479126 277.639709,365.266663 
	C284.668274,365.280548 290.206818,360.544006 292.794098,352.741791 
	C295.104156,345.775635 293.454285,338.386169 288.753632,334.778564 
	C286.427612,335.819611 285.817810,338.216431 284.280853,340.789642 
M657.004456,314.491516 
	C655.798889,319.331268 653.873230,324.086639 654.659119,329.279327 
	C657.545471,329.493622 659.461121,328.467010 661.318176,327.435394 
	C670.366577,322.409088 673.336426,312.635559 668.292908,305.220093 
	C666.065796,301.945618 664.047913,302.014038 661.699219,304.902863 
	C659.566956,307.525665 658.322937,310.593109 657.004456,314.491516 
M483.532043,332.322815 
	C482.892395,341.778534 489.791290,347.723175 497.993958,344.627594 
	C498.028473,339.718628 496.854919,335.147949 493.933655,331.083527 
	C489.829742,325.373749 487.629425,325.490143 483.532043,332.322815 
z"/>
<path fill="#000000" opacity="1.000000" stroke="none" 
	d="
M457.999878,638.404358 
	C424.667969,638.405334 391.835968,638.365601 359.004242,638.437927 
	C351.553253,638.454346 344.150085,640.108582 336.640747,638.436401 
	C327.868866,636.482971 324.177094,632.271423 322.509186,623.331238 
	C321.221497,616.429138 322.671143,609.742188 322.674194,602.959229 
	C322.690308,567.129578 322.667938,531.299988 322.677032,495.470367 
	C322.677795,492.473969 322.523804,489.436890 322.939270,486.488831 
	C324.206085,477.500275 328.253052,470.706207 337.757477,469.287354 
	C338.078430,468.491791 338.345337,468.166565 338.300873,467.891663 
	C336.814087,458.700012 337.426727,457.827332 346.565643,456.930969 
	C348.762573,456.715454 350.544739,456.378113 352.283661,454.589050 
	C358.541199,448.150940 369.954742,448.587921 375.791809,455.426605 
	C377.311554,457.207123 378.939606,457.553680 381.005951,457.639923 
	C390.312225,458.028442 391.101044,459.201904 387.986969,468.027802 
	C390.069000,469.578186 392.520050,469.646423 394.991669,469.646912 
	C439.988129,469.655670 484.984680,469.619598 529.980774,469.749664 
	C534.293762,469.762146 536.205444,468.493408 535.680298,464.049835 
	C535.133179,459.419434 537.821533,457.536224 541.965271,457.791656 
	C550.598633,458.323792 559.219666,458.029449 567.844543,457.824066 
	C570.991760,457.749146 572.301270,459.097656 572.419250,462.263794 
	C572.602539,467.181030 573.981934,470.248505 580.333618,469.929382 
	C587.753845,469.556549 592.963928,476.913940 593.264832,486.663269 
	C593.475464,493.490173 593.340820,500.328064 593.342102,507.161041 
	C593.347107,533.993225 593.496704,560.826721 593.261292,587.656799 
	C593.180786,596.836670 594.365601,605.927490 594.335876,615.087769 
	C594.324341,618.631775 593.767456,622.080383 592.921875,625.442993 
	C590.782104,633.953552 586.566711,637.634705 577.368896,638.375916 
	C555.091736,640.171021 532.795776,639.268372 510.490021,638.635254 
	C493.171722,638.143738 475.830780,638.451599 457.999878,638.404358 
M330.274353,478.938263 
	C329.210449,481.028503 328.538055,483.220245 328.138733,485.549500 
	C326.688904,494.006439 327.560944,502.432068 327.950409,510.907227 
	C328.163910,515.552246 329.664978,516.775330 334.146118,516.747559 
	C362.796661,516.570557 391.449036,516.596558 420.100159,516.712891 
	C424.574615,516.731079 428.369446,515.650940 432.354919,513.515442 
	C456.299255,500.685883 480.187347,499.538727 503.589661,514.994263 
	C505.711517,516.395630 507.824432,516.665161 510.183411,516.662354 
	C530.006287,516.638855 549.829651,516.574158 569.651794,516.692688 
	C574.834656,516.723633 579.938232,516.212097 585.070557,515.716858 
	C587.471863,515.485229 588.859497,514.597961 588.836914,512.098511 
	C588.758728,503.438873 589.096008,494.745209 588.429565,486.129883 
	C587.788391,477.840302 583.588989,473.426971 576.976929,473.400879 
	C548.492615,473.288422 519.997681,472.935272 491.525848,473.553650 
	C471.725586,473.983643 451.962097,473.742188 432.171814,473.613708 
	C403.035126,473.424561 373.918701,471.895569 344.783386,472.462067 
	C339.550049,472.563812 333.976105,473.004578 330.274353,478.938263 
M471.507507,633.874817 
	C481.320251,634.079163 491.136841,634.242737 500.945557,634.472290 
	C524.929565,635.033508 548.935486,634.645935 572.932434,634.694885 
	C575.483215,634.700073 577.927612,634.224731 580.287598,633.454590 
	C586.330261,631.482849 589.655945,624.761414 587.586243,618.580017 
	C571.995422,621.775574 556.162537,620.008545 540.402344,620.337463 
	C527.242493,620.612061 514.074158,620.498840 500.909576,620.502625 
	C498.703186,620.503235 496.692474,620.876404 494.654877,621.822327 
	C474.591400,631.136414 454.448547,631.071472 434.282104,622.116150 
	C432.299683,621.235779 430.360626,620.420471 428.088135,620.425049 
	C412.270477,620.456909 396.452667,620.401672 380.634888,620.383545 
	C366.969818,620.367920 353.303192,620.246460 339.640717,620.430237 
	C335.719177,620.482971 331.912537,618.340210 327.958679,619.745544 
	C328.053467,627.673950 331.257935,631.847351 338.178070,633.821960 
	C341.141205,634.667480 344.089905,634.685852 347.079315,634.661865 
	C388.223083,634.331909 429.376007,635.426331 471.507507,633.874817 
M505.782318,522.716370 
	C503.760315,520.739685 501.773071,518.754150 499.353333,517.207275 
	C478.904388,504.135193 457.916412,504.102356 436.885773,515.265015 
	C404.426941,532.493652 395.620880,577.114319 419.240753,604.921997 
	C434.079437,622.391663 453.817169,627.128296 475.682953,624.080505 
	C492.223724,621.774841 505.179382,613.122620 514.289429,599.139404 
	C521.563965,587.973694 523.509705,575.413208 522.660034,562.320374 
	C521.692810,547.415771 517.117798,534.001892 505.782318,522.716370 
M559.411987,468.939026 
	C561.069214,468.911163 562.726624,468.852936 564.383606,468.862457 
	C566.952393,468.877197 567.923889,467.575287 567.734314,465.097900 
	C567.569031,462.937927 567.849548,460.459320 564.679504,460.426575 
	C557.552979,460.352875 550.421387,460.266907 543.299255,460.459869 
	C539.416077,460.565063 540.478760,463.810272 540.363770,466.122620 
	C540.237061,468.669739 541.351379,469.486359 544.038086,469.270569 
	C548.815857,468.886871 553.635437,469.022705 559.411987,468.939026 
M362.741638,453.642731 
	C360.875793,453.922821 358.727814,453.611359 357.772919,455.920837 
	C361.572998,458.356079 366.365204,458.360596 369.678131,455.925140 
	C367.900604,454.231964 365.805450,453.513733 362.741638,453.642731 
z"/>
<path fill="#000000" opacity="1.000000" stroke="none" 
	d="
M268.666199,100.493942 
	C280.103058,94.005692 291.093292,93.282234 301.623077,101.486946 
	C307.315704,105.922607 310.340240,112.291801 311.023987,119.156868 
	C312.629944,135.281418 309.877777,150.686142 301.114746,164.655640 
	C299.424164,167.350662 297.321320,169.721252 294.931885,171.828445 
	C293.433289,173.150040 291.704834,173.880356 289.964142,172.558655 
	C287.980560,171.052490 289.636475,169.525497 290.413574,168.218079 
	C298.595367,154.452591 301.583435,139.490845 300.688751,123.656456 
	C300.321533,117.156647 298.313019,111.235184 293.589020,106.514366 
	C288.116089,101.045105 284.091919,101.004944 278.575592,106.331284 
	C275.914886,108.900352 273.823059,111.925636 272.104095,115.171944 
	C261.057190,136.034348 254.835434,158.334702 252.258362,181.737198 
	C249.991714,202.320786 251.089844,222.613647 257.291016,242.472198 
	C260.454651,252.603302 264.916199,262.053009 272.961578,269.335510 
	C282.320984,277.807434 292.885803,280.670319 305.272888,276.769470 
	C329.024292,269.289825 346.242279,244.269348 343.876190,220.575989 
	C343.473755,216.546158 342.004181,215.965012 338.451447,216.681747 
	C332.198364,217.943268 325.842896,218.229034 319.729218,215.958282 
	C314.842896,214.143372 310.950348,211.072556 309.720398,205.662323 
	C307.348663,195.229965 314.664032,187.991333 326.137329,189.182617 
	C336.094910,190.216507 342.584534,196.000641 346.859314,204.484894 
	C348.471039,207.683731 350.091797,208.611954 353.406097,207.251480 
	C355.850342,206.248154 358.496857,205.713623 361.078949,205.073807 
	C379.419250,200.529068 390.556305,208.573578 392.329132,227.425766 
	C393.121735,235.854446 394.285797,244.247971 395.254791,252.660492 
	C395.468658,254.517136 395.947083,256.229156 397.513092,257.854736 
	C400.059906,256.630219 401.170807,254.160339 402.311859,251.888535 
	C409.075836,238.421722 412.685120,224.486847 411.335907,209.064590 
	C410.245239,196.597122 412.432220,184.178864 417.437012,172.475266 
	C418.756866,169.388809 420.481842,166.547119 422.606079,163.956940 
	C430.424316,154.423859 442.334045,154.750290 449.722595,164.708221 
	C452.741028,168.776337 454.732117,173.312820 455.822479,178.268021 
	C457.255341,184.779785 455.364502,188.716339 449.274811,191.663010 
	C444.057129,194.187744 438.308289,194.338486 432.742279,195.143570 
	C429.725037,195.579987 428.253845,196.479614 428.303070,199.729630 
	C428.545868,215.756760 429.915131,231.604385 435.044098,246.931320 
	C436.114746,250.130722 437.806244,252.962097 439.637787,255.763306 
	C441.802002,259.073303 443.903412,258.855164 446.347290,256.097260 
	C451.734222,250.018097 454.850830,242.634018 458.572021,235.558044 
	C462.684692,227.737656 462.477203,219.204849 463.702789,210.871048 
	C465.599884,197.971298 469.308350,185.810471 479.316986,176.590256 
	C487.478973,169.071136 500.677399,170.385406 505.946747,179.188202 
	C506.611176,180.298187 507.759979,181.539490 506.565826,182.781357 
	C505.367615,184.027451 503.803802,183.602585 502.399170,182.854401 
	C502.107239,182.698898 501.839813,182.491043 501.578705,182.284988 
	C494.138245,176.413147 492.545959,175.823975 486.743805,186.459656 
	C481.000366,196.987686 478.691864,208.690857 477.536377,220.467285 
	C476.295776,233.111496 477.378479,245.730682 480.500336,258.105103 
	C480.772888,259.185333 481.073486,260.394257 482.599335,261.036499 
	C485.581512,258.140808 487.182373,254.333237 488.782043,250.571289 
	C494.387665,237.388474 496.253876,223.378799 497.721008,209.293381 
	C498.395050,202.822128 501.591675,200.330124 506.215820,202.863831 
	C509.162994,204.478638 509.060120,207.536179 509.270905,210.328384 
	C509.934052,219.113037 510.517761,227.909546 512.399109,236.541367 
	C513.819519,243.058395 515.596375,249.484604 518.926025,255.334610 
	C521.626465,260.079132 523.108337,260.390900 527.574280,257.197968 
	C535.111572,251.809067 538.877136,243.709549 542.307129,235.590515 
	C550.260010,216.765610 554.457336,196.891907 557.508911,176.791931 
	C559.109375,166.250168 558.116455,165.625427 547.413696,166.805573 
	C543.253113,167.264359 538.895996,168.068893 534.689941,164.335571 
	C539.477356,160.847763 544.648682,161.384171 549.367798,160.829575 
	C556.788879,159.957443 556.796631,160.258362 556.830933,152.882858 
	C556.898315,138.399765 555.967285,123.895866 557.684875,109.446274 
	C557.939575,107.303009 558.315186,105.174385 558.599060,103.034256 
	C559.129822,99.033440 561.933044,98.601830 565.201965,98.655579 
	C568.661011,98.712471 570.986633,99.918205 571.350891,103.707466 
	C571.955383,109.994186 572.867249,116.261772 573.205933,122.561264 
	C573.768982,133.032806 574.131592,143.521378 574.260376,154.006668 
	C574.306580,157.771347 575.667847,159.027344 579.291687,158.834183 
	C584.446716,158.559418 589.618713,158.579620 594.783997,158.535919 
	C596.106079,158.524734 597.683044,158.556580 597.882080,160.315964 
	C598.075073,162.021820 596.557007,162.578690 595.309204,162.867432 
	C590.421265,163.998535 585.430054,164.553787 580.431824,164.246277 
	C576.109253,163.980347 575.005859,165.864197 575.242310,169.872955 
	C576.114563,184.660950 576.689392,199.466278 577.515869,214.257278 
	C578.351318,229.209015 579.338684,244.152374 580.291809,259.097351 
	C580.503357,262.415192 580.873047,265.722717 581.128296,269.038177 
	C581.363525,272.094421 581.028687,274.860657 577.144470,275.256226 
	C573.142151,275.663818 569.705566,275.001434 568.848694,270.224152 
	C567.116821,260.568604 565.404297,250.909515 563.710022,241.247299 
	C561.329163,227.669983 560.195679,213.936432 558.619568,199.435608 
	C555.942810,212.263550 553.368347,224.290009 549.134827,235.882126 
	C546.547668,242.966202 543.338013,249.695358 538.659119,255.669281 
	C529.068665,267.914307 513.721924,267.206207 505.318604,254.216461 
	C502.367065,249.653992 501.168213,244.450287 498.974701,238.427078 
	C497.442261,242.727661 496.370911,246.262878 494.931335,249.641174 
	C493.106598,253.923492 491.294464,258.264343 488.918243,262.246613 
	C484.879974,269.014374 477.094147,269.155945 472.499451,262.736542 
	C469.861664,259.051178 468.120331,254.896667 466.807983,250.564636 
	C466.188751,248.520584 465.874390,246.354950 464.133911,244.009216 
	C458.811432,254.004593 455.865509,266.516541 441.339203,266.136292 
	C427.863708,265.783569 422.014130,256.032837 416.901581,244.316788 
	C414.876373,248.714462 413.279083,252.280533 411.600922,255.808121 
	C407.004669,265.469788 401.100189,268.880981 391.929413,267.350525 
	C385.398712,266.260712 381.938751,261.816833 379.555542,256.202850 
	C376.845612,249.819153 376.270996,242.985184 375.729767,236.193741 
	C375.213226,229.712509 374.421173,223.293747 372.754303,217.009613 
	C371.016724,210.458908 369.013306,209.205414 362.461945,210.323471 
	C361.969391,210.407532 361.471313,210.464630 360.983398,210.569626 
	C351.424347,212.626678 351.424530,212.627716 352.234253,222.352448 
	C354.028259,243.898529 337.819763,269.701080 316.514313,279.215576 
	C283.929108,293.767334 251.176208,278.420807 239.714127,243.192596 
	C233.217194,223.224594 232.424957,202.798233 234.463455,182.045013 
	C236.419067,162.135712 241.386795,143.113113 249.730545,124.960625 
	C254.092850,115.470116 259.520386,106.766312 268.666199,100.493942 
M446.332855,184.714569 
	C448.981079,177.243179 444.680176,167.611084 436.751495,163.936646 
	C432.118317,171.194885 429.813293,179.180588 429.286713,187.747818 
	C429.155975,189.874496 430.328033,190.926773 432.356140,190.629471 
	C437.267731,189.909485 442.355682,189.542145 446.332855,184.714569 
M336.361115,201.146484 
	C334.288818,198.490295 331.826691,196.254501 328.809296,194.756958 
	C323.299164,192.022263 318.405579,195.041031 318.165863,201.232300 
	C317.888489,208.397598 322.989349,213.160965 331.070953,213.040344 
	C334.516815,212.988922 338.966614,213.476257 340.656342,210.301727 
	C342.145111,207.504761 338.661255,204.749725 337.102386,202.100510 
	C337.018768,201.958420 336.901642,201.836060 336.361115,201.146484 
z"/>
<path fill="#000000" opacity="1.000000" stroke="none" 
	d="
M592.187988,192.459671 
	C593.877319,186.793579 595.618225,181.600311 598.819397,177.021225 
	C606.156311,166.526199 619.696411,167.377670 625.481750,178.699280 
	C627.262390,182.183777 628.045410,185.951324 628.106323,189.767029 
	C628.218262,196.779846 625.344971,200.623169 618.728882,202.818649 
	C616.685242,203.496780 614.559204,203.957397 612.443604,204.382233 
	C605.076538,205.861557 604.661987,206.178238 604.398682,213.652420 
	C604.004333,224.848923 604.559753,235.969727 608.868164,246.513184 
	C612.756897,256.029968 616.813843,256.763916 624.026917,249.335388 
	C630.810242,242.349442 634.415588,233.572083 637.627808,224.597900 
	C638.130188,223.194305 638.544556,221.732773 639.252014,220.435654 
	C640.145935,218.796387 641.742676,218.254089 643.534912,218.630768 
	C645.621277,219.069275 646.060181,220.746094 645.812988,222.484726 
	C644.164673,234.074753 640.313660,245.069138 632.603577,253.780182 
	C622.395386,265.313599 599.509949,264.625214 592.685303,246.397781 
	C587.202026,231.752869 587.833801,216.703751 590.120483,201.599945 
	C590.566956,198.650894 591.393616,195.759415 592.187988,192.459671 
M606.891296,194.108154 
	C606.503845,195.991959 605.673706,197.890167 607.067871,199.890503 
	C612.223267,199.531219 616.617798,197.964432 618.357300,192.586258 
	C620.080750,187.257324 617.585632,180.188217 613.082825,177.233063 
	C609.584473,182.053314 608.032043,187.570862 606.891296,194.108154 
z"/>
<path fill="#000000" opacity="1.000000" stroke="none" 
	d="
M661.076782,598.912048 
	C672.394287,609.039062 684.691162,617.611389 694.454163,629.116760 
	C691.667114,632.092102 689.568787,630.377869 687.616272,629.486206 
	C676.942871,624.612183 667.522705,617.778992 658.438965,610.466064 
	C645.318604,599.903503 632.982605,588.543457 623.044861,574.816772 
	C620.757324,571.657043 620.796936,571.628357 620.727295,568.062744 
	C623.616333,566.766785 625.469055,568.853210 627.272156,570.361267 
	C638.495605,579.748047 649.630615,589.240356 661.076782,598.912048 
z"/>
<path fill="#000000" opacity="1.000000" stroke="none" 
	d="
M231.720764,582.617920 
	C248.261581,576.767822 264.704315,572.123718 281.756531,569.883606 
	C284.579742,569.512756 284.725555,569.587402 287.774200,571.651489 
	C286.645142,574.388245 284.012268,575.272827 281.653992,576.192566 
	C257.154938,585.747437 232.262558,594.072144 206.551178,599.772095 
	C205.423523,600.022095 204.258423,600.161682 203.104309,600.216309 
	C202.093628,600.264160 201.050400,600.080627 200.592636,598.993225 
	C200.021866,597.637268 200.850250,596.677002 201.850235,596.075562 
	C204.699570,594.362000 207.517670,592.523743 210.552979,591.206909 
	C217.417389,588.228821 224.404953,585.534668 231.720764,582.617920 
z"/>
<path fill="#000000" opacity="1.000000" stroke="none" 
	d="
M644.122314,482.106445 
	C654.055908,475.334320 662.279846,466.422119 674.106934,462.788208 
	C675.191711,466.448761 673.439087,468.172882 672.001892,469.911713 
	C658.529114,486.212311 641.838379,498.413147 623.145569,508.020050 
	C621.095337,509.073730 618.868591,509.982300 616.417175,508.630280 
	C615.608337,505.783295 617.870728,504.423737 619.415894,502.892487 
	C626.997192,495.379333 635.529236,488.980682 644.122314,482.106445 
z"/>
<path fill="#000000" opacity="1.000000" stroke="none" 
	d="
M243.422913,466.406738 
	C242.603531,464.554108 241.792801,463.032928 243.047043,461.306183 
	C245.477066,460.412506 247.124390,462.133362 248.711349,463.406647 
	C264.392761,475.988342 277.549164,490.895355 288.796082,507.505310 
	C291.234467,511.106445 291.066681,511.334686 290.452332,514.816345 
	C287.664642,515.290344 285.706665,513.531616 283.864655,511.999512 
	C268.168640,498.943756 254.670471,483.913300 243.422913,466.406738 
z"/>
<path fill="#000000" opacity="1.000000" stroke="none" 
	d="
M287.050476,536.927612 
	C290.987732,540.962646 287.584442,541.133484 285.028778,541.296021 
	C277.041809,541.804260 269.073547,541.157959 261.156738,540.208191 
	C248.475906,538.686890 235.759674,537.315491 223.315506,534.277344 
	C221.112793,533.739563 218.710220,533.481995 217.028214,531.407288 
	C218.102112,527.986816 221.265106,528.087585 223.573593,527.977966 
	C245.145157,526.953491 266.391693,528.575378 287.050476,536.927612 
z"/>
<path fill="#000000" opacity="1.000000" stroke="none" 
	d="
M653.427612,550.992798 
	C641.052185,548.850525 628.578064,548.799194 617.119568,542.082947 
	C626.242798,535.197021 673.078003,540.916565 679.402039,549.593933 
	C670.778748,552.827820 662.232300,550.918762 653.427612,550.992798 
z"/>
<path fill="#000000" opacity="1.000000" stroke="none" 
	d="
M612.399414,289.086609 
	C608.837463,289.311279 605.676941,289.678558 602.657043,288.409882 
	C599.171387,286.945526 596.596191,284.576385 597.078491,280.552673 
	C597.607605,276.137482 600.676086,273.919922 604.981079,273.784088 
	C609.408020,273.644440 613.394897,275.383148 617.120544,277.595978 
	C619.167358,278.811615 619.808044,280.890503 619.485413,283.208649 
	C618.950378,287.052795 615.836548,287.983551 612.399414,289.086609 
z"/>
<path fill="#000000" opacity="1.000000" stroke="none" 
	d="
M375.997528,511.084106 
	C366.686523,511.138611 357.875061,511.236877 349.063599,511.235168 
	C342.509094,511.233917 340.971985,509.573242 340.691406,502.965912 
	C340.473450,497.833099 339.794098,492.710724 339.768463,487.581482 
	C339.743011,482.494202 341.678955,480.731598 346.788605,480.705841 
	C360.419098,480.637054 374.050690,480.742950 387.680573,480.628998 
	C391.037018,480.600952 393.004791,482.043762 394.077759,485.036316 
	C396.910339,492.936523 394.431580,500.824951 393.861328,508.693695 
	C393.707703,510.813843 391.380554,511.077789 389.466553,511.079926 
	C385.143402,511.084808 380.820221,511.083679 375.997528,511.084106 
M355.398132,504.515198 
	C353.977020,504.838501 352.555878,505.161804 350.826111,505.555298 
	C362.077087,505.555298 372.973663,505.555298 383.870270,505.555298 
	C383.871735,505.179596 383.873230,504.803894 383.874695,504.428192 
	C374.659302,504.428192 365.443878,504.428192 355.398132,504.515198 
z"/>
<path fill="#000000" opacity="1.000000" stroke="none" 
	d="
M546.050171,510.273499 
	C544.394592,510.276093 543.229309,510.287659 542.064087,510.282410 
	C532.705811,510.240326 531.863708,509.343994 531.618164,500.215271 
	C531.502197,495.906433 530.927795,491.611877 530.704163,487.303436 
	C530.476074,482.908295 532.966736,480.793976 537.091675,480.759979 
	C548.075256,480.669342 559.065063,480.569946 570.043213,480.842407 
	C576.774048,481.009430 578.139282,483.258575 577.544373,490.097778 
	C577.141785,494.726685 577.240356,499.414001 577.361633,504.068756 
	C577.454163,507.616180 576.075989,509.330933 572.448242,509.336731 
	C563.803162,509.350586 555.207764,510.804688 546.050171,510.273499 
z"/>
<path fill="#000000" opacity="1.000000" stroke="none" 
	d="
M417.554657,542.695984 
	C430.088989,523.099060 447.807312,513.297424 470.496185,516.025818 
	C491.729919,518.579163 507.129730,530.612122 514.635559,551.109985 
	C520.910767,568.247314 516.091553,583.677429 505.073120,597.254639 
	C490.926849,614.686035 472.628235,622.485779 450.583435,616.011902 
	C428.941071,609.656372 416.924561,593.856506 412.611755,571.940247 
	C410.591461,561.673767 412.549744,552.127747 417.554657,542.695984 
z"/>
</svg>